<mxfile host="app.diagrams.net" modified="2023-11-16T23:09:05.182Z" agent="Mozilla/5.0 (Windows NT 10.0; Win64; x64) AppleWebKit/537.36 (KHTML, like Gecko) Chrome/119.0.0.0 Safari/537.36" etag="GgBDuDEORm_KydDj7wPW" version="22.1.2" type="device">
  <diagram name="Page-1" id="e7e014a7-5840-1c2e-5031-d8a46d1fe8dd">
    <mxGraphModel dx="2403" dy="1246" grid="1" gridSize="10" guides="1" tooltips="1" connect="1" arrows="1" fold="1" page="1" pageScale="1" pageWidth="1169" pageHeight="826" background="none" math="0" shadow="0">
      <root>
        <mxCell id="0" />
        <mxCell id="1" parent="0" />
        <mxCell id="PH5h02zSDOYeuEmb0JVY-2" style="edgeStyle=orthogonalEdgeStyle;rounded=0;orthogonalLoop=1;jettySize=auto;html=1;" edge="1" parent="1" source="PH5h02zSDOYeuEmb0JVY-3" target="PH5h02zSDOYeuEmb0JVY-6">
          <mxGeometry relative="1" as="geometry" />
        </mxCell>
        <mxCell id="PH5h02zSDOYeuEmb0JVY-3" value="Receive request &lt;br&gt;input" style="rounded=1;whiteSpace=wrap;html=1;" vertex="1" parent="1">
          <mxGeometry x="111" y="320" width="120" height="60" as="geometry" />
        </mxCell>
        <mxCell id="PH5h02zSDOYeuEmb0JVY-4" style="edgeStyle=orthogonalEdgeStyle;rounded=0;orthogonalLoop=1;jettySize=auto;html=1;exitX=1;exitY=0.5;exitDx=0;exitDy=0;entryX=0;entryY=0.5;entryDx=0;entryDy=0;" edge="1" parent="1" source="PH5h02zSDOYeuEmb0JVY-5" target="PH5h02zSDOYeuEmb0JVY-3">
          <mxGeometry relative="1" as="geometry" />
        </mxCell>
        <mxCell id="PH5h02zSDOYeuEmb0JVY-5" value="" style="ellipse;shape=startState;fillColor=#000000;strokeColor=#ff0000;" vertex="1" parent="1">
          <mxGeometry x="40" y="335" width="30" height="30" as="geometry" />
        </mxCell>
        <mxCell id="PH5h02zSDOYeuEmb0JVY-33" style="edgeStyle=orthogonalEdgeStyle;rounded=0;orthogonalLoop=1;jettySize=auto;html=1;exitX=1;exitY=0.5;exitDx=0;exitDy=0;entryX=0;entryY=0.5;entryDx=0;entryDy=0;" edge="1" parent="1" source="PH5h02zSDOYeuEmb0JVY-6" target="PH5h02zSDOYeuEmb0JVY-29">
          <mxGeometry relative="1" as="geometry" />
        </mxCell>
        <mxCell id="PH5h02zSDOYeuEmb0JVY-6" value="Authenticate" style="whiteSpace=wrap;html=1;rounded=1;" vertex="1" parent="1">
          <mxGeometry x="310" y="320" width="120" height="60" as="geometry" />
        </mxCell>
        <mxCell id="PH5h02zSDOYeuEmb0JVY-11" style="edgeStyle=orthogonalEdgeStyle;rounded=0;orthogonalLoop=1;jettySize=auto;html=1;exitX=0.5;exitY=0;exitDx=0;exitDy=0;entryX=0;entryY=0.5;entryDx=0;entryDy=0;" edge="1" parent="1" source="PH5h02zSDOYeuEmb0JVY-7" target="PH5h02zSDOYeuEmb0JVY-9">
          <mxGeometry relative="1" as="geometry" />
        </mxCell>
        <mxCell id="PH5h02zSDOYeuEmb0JVY-38" value="[PRIMARY DATA INPUT]" style="edgeLabel;html=1;align=center;verticalAlign=middle;resizable=0;points=[];" vertex="1" connectable="0" parent="PH5h02zSDOYeuEmb0JVY-11">
          <mxGeometry x="0.5023" relative="1" as="geometry">
            <mxPoint x="-31" y="-20" as="offset" />
          </mxGeometry>
        </mxCell>
        <mxCell id="PH5h02zSDOYeuEmb0JVY-12" style="edgeStyle=orthogonalEdgeStyle;rounded=0;orthogonalLoop=1;jettySize=auto;html=1;exitX=0.5;exitY=1;exitDx=0;exitDy=0;entryX=0;entryY=0.5;entryDx=0;entryDy=0;" edge="1" parent="1" source="PH5h02zSDOYeuEmb0JVY-7" target="PH5h02zSDOYeuEmb0JVY-10">
          <mxGeometry relative="1" as="geometry" />
        </mxCell>
        <mxCell id="PH5h02zSDOYeuEmb0JVY-39" value="[DEFAULT DATA INPUT]" style="edgeLabel;html=1;align=center;verticalAlign=middle;resizable=0;points=[];" vertex="1" connectable="0" parent="PH5h02zSDOYeuEmb0JVY-12">
          <mxGeometry x="0.2166" y="-2" relative="1" as="geometry">
            <mxPoint x="-9" y="18" as="offset" />
          </mxGeometry>
        </mxCell>
        <mxCell id="PH5h02zSDOYeuEmb0JVY-7" value="" style="rhombus;whiteSpace=wrap;html=1;" vertex="1" parent="1">
          <mxGeometry x="930" y="330" width="30" height="40" as="geometry" />
        </mxCell>
        <mxCell id="PH5h02zSDOYeuEmb0JVY-15" style="edgeStyle=orthogonalEdgeStyle;rounded=0;orthogonalLoop=1;jettySize=auto;html=1;exitX=1;exitY=0.5;exitDx=0;exitDy=0;entryX=0.5;entryY=0;entryDx=0;entryDy=0;" edge="1" parent="1" source="PH5h02zSDOYeuEmb0JVY-9" target="PH5h02zSDOYeuEmb0JVY-13">
          <mxGeometry relative="1" as="geometry" />
        </mxCell>
        <mxCell id="PH5h02zSDOYeuEmb0JVY-9" value="Calculate emissions based on primary data" style="whiteSpace=wrap;html=1;rounded=1;" vertex="1" parent="1">
          <mxGeometry x="1050" y="250" width="120" height="60" as="geometry" />
        </mxCell>
        <mxCell id="PH5h02zSDOYeuEmb0JVY-16" style="edgeStyle=orthogonalEdgeStyle;rounded=0;orthogonalLoop=1;jettySize=auto;html=1;exitX=1;exitY=0.5;exitDx=0;exitDy=0;entryX=0.5;entryY=1;entryDx=0;entryDy=0;" edge="1" parent="1" source="PH5h02zSDOYeuEmb0JVY-10" target="PH5h02zSDOYeuEmb0JVY-13">
          <mxGeometry relative="1" as="geometry" />
        </mxCell>
        <mxCell id="PH5h02zSDOYeuEmb0JVY-10" value="Calculate emissions based on default data" style="whiteSpace=wrap;html=1;rounded=1;" vertex="1" parent="1">
          <mxGeometry x="1050" y="390" width="120" height="60" as="geometry" />
        </mxCell>
        <mxCell id="PH5h02zSDOYeuEmb0JVY-18" style="edgeStyle=orthogonalEdgeStyle;rounded=0;orthogonalLoop=1;jettySize=auto;html=1;exitX=1;exitY=0.5;exitDx=0;exitDy=0;" edge="1" parent="1" source="PH5h02zSDOYeuEmb0JVY-13" target="PH5h02zSDOYeuEmb0JVY-17">
          <mxGeometry relative="1" as="geometry" />
        </mxCell>
        <mxCell id="PH5h02zSDOYeuEmb0JVY-13" value="" style="rhombus;whiteSpace=wrap;html=1;" vertex="1" parent="1">
          <mxGeometry x="1280" y="330" width="30" height="40" as="geometry" />
        </mxCell>
        <mxCell id="PH5h02zSDOYeuEmb0JVY-20" style="edgeStyle=orthogonalEdgeStyle;rounded=0;orthogonalLoop=1;jettySize=auto;html=1;exitX=0.5;exitY=1;exitDx=0;exitDy=0;entryX=0;entryY=0.5;entryDx=0;entryDy=0;" edge="1" parent="1" source="PH5h02zSDOYeuEmb0JVY-17" target="PH5h02zSDOYeuEmb0JVY-19">
          <mxGeometry relative="1" as="geometry" />
        </mxCell>
        <mxCell id="PH5h02zSDOYeuEmb0JVY-41" value="[CALCULATION ERROR]" style="edgeLabel;html=1;align=center;verticalAlign=middle;resizable=0;points=[];" vertex="1" connectable="0" parent="PH5h02zSDOYeuEmb0JVY-20">
          <mxGeometry x="0.216" y="1" relative="1" as="geometry">
            <mxPoint x="-15" y="21" as="offset" />
          </mxGeometry>
        </mxCell>
        <mxCell id="PH5h02zSDOYeuEmb0JVY-22" style="edgeStyle=orthogonalEdgeStyle;rounded=0;orthogonalLoop=1;jettySize=auto;html=1;exitX=0.5;exitY=0;exitDx=0;exitDy=0;entryX=0;entryY=0.5;entryDx=0;entryDy=0;" edge="1" parent="1" source="PH5h02zSDOYeuEmb0JVY-17" target="PH5h02zSDOYeuEmb0JVY-21">
          <mxGeometry relative="1" as="geometry" />
        </mxCell>
        <mxCell id="PH5h02zSDOYeuEmb0JVY-40" value="[CALCULATION OK]" style="edgeLabel;html=1;align=center;verticalAlign=middle;resizable=0;points=[];" vertex="1" connectable="0" parent="PH5h02zSDOYeuEmb0JVY-22">
          <mxGeometry x="0.3321" y="-2" relative="1" as="geometry">
            <mxPoint x="-8" y="-22" as="offset" />
          </mxGeometry>
        </mxCell>
        <mxCell id="PH5h02zSDOYeuEmb0JVY-17" value="" style="rhombus;whiteSpace=wrap;html=1;" vertex="1" parent="1">
          <mxGeometry x="1410" y="330" width="30" height="40" as="geometry" />
        </mxCell>
        <mxCell id="PH5h02zSDOYeuEmb0JVY-25" style="edgeStyle=orthogonalEdgeStyle;rounded=0;orthogonalLoop=1;jettySize=auto;html=1;exitX=1;exitY=0.5;exitDx=0;exitDy=0;entryX=0.5;entryY=1;entryDx=0;entryDy=0;" edge="1" parent="1" source="PH5h02zSDOYeuEmb0JVY-19" target="PH5h02zSDOYeuEmb0JVY-23">
          <mxGeometry relative="1" as="geometry" />
        </mxCell>
        <mxCell id="PH5h02zSDOYeuEmb0JVY-19" value="Send error message" style="rounded=1;whiteSpace=wrap;html=1;" vertex="1" parent="1">
          <mxGeometry x="1529" y="400" width="120" height="60" as="geometry" />
        </mxCell>
        <mxCell id="PH5h02zSDOYeuEmb0JVY-24" style="edgeStyle=orthogonalEdgeStyle;rounded=0;orthogonalLoop=1;jettySize=auto;html=1;exitX=1;exitY=0.5;exitDx=0;exitDy=0;" edge="1" parent="1" source="PH5h02zSDOYeuEmb0JVY-21" target="PH5h02zSDOYeuEmb0JVY-23">
          <mxGeometry relative="1" as="geometry" />
        </mxCell>
        <mxCell id="PH5h02zSDOYeuEmb0JVY-21" value="Send Calculation Report" style="whiteSpace=wrap;html=1;rounded=1;" vertex="1" parent="1">
          <mxGeometry x="1529" y="250" width="120" height="60" as="geometry" />
        </mxCell>
        <mxCell id="PH5h02zSDOYeuEmb0JVY-23" value="" style="ellipse;shape=endState;fillColor=#000000;strokeColor=#ff0000" vertex="1" parent="1">
          <mxGeometry x="1750" y="335" width="30" height="30" as="geometry" />
        </mxCell>
        <mxCell id="PH5h02zSDOYeuEmb0JVY-26" value="General overview of the Emission calculation process" style="text;html=1;strokeColor=none;fillColor=none;align=center;verticalAlign=middle;whiteSpace=wrap;rounded=0;" vertex="1" parent="1">
          <mxGeometry x="40" y="190" width="140" height="70" as="geometry" />
        </mxCell>
        <mxCell id="PH5h02zSDOYeuEmb0JVY-32" style="edgeStyle=orthogonalEdgeStyle;rounded=0;orthogonalLoop=1;jettySize=auto;html=1;entryX=0;entryY=0.5;entryDx=0;entryDy=0;" edge="1" parent="1" source="PH5h02zSDOYeuEmb0JVY-29" target="PH5h02zSDOYeuEmb0JVY-30">
          <mxGeometry relative="1" as="geometry" />
        </mxCell>
        <mxCell id="PH5h02zSDOYeuEmb0JVY-29" value="Validate input" style="whiteSpace=wrap;html=1;rounded=1;" vertex="1" parent="1">
          <mxGeometry x="550" y="320" width="120" height="60" as="geometry" />
        </mxCell>
        <mxCell id="PH5h02zSDOYeuEmb0JVY-31" style="edgeStyle=orthogonalEdgeStyle;rounded=0;orthogonalLoop=1;jettySize=auto;html=1;entryX=0;entryY=0.5;entryDx=0;entryDy=0;" edge="1" parent="1" source="PH5h02zSDOYeuEmb0JVY-30" target="PH5h02zSDOYeuEmb0JVY-7">
          <mxGeometry relative="1" as="geometry" />
        </mxCell>
        <mxCell id="PH5h02zSDOYeuEmb0JVY-37" value="[INPUT OK]" style="edgeLabel;html=1;align=center;verticalAlign=middle;resizable=0;points=[];" vertex="1" connectable="0" parent="PH5h02zSDOYeuEmb0JVY-31">
          <mxGeometry x="-0.4095" relative="1" as="geometry">
            <mxPoint x="24" y="-15" as="offset" />
          </mxGeometry>
        </mxCell>
        <mxCell id="PH5h02zSDOYeuEmb0JVY-34" style="edgeStyle=orthogonalEdgeStyle;rounded=0;orthogonalLoop=1;jettySize=auto;html=1;exitX=0.5;exitY=1;exitDx=0;exitDy=0;entryX=0.5;entryY=1;entryDx=0;entryDy=0;" edge="1" parent="1" source="PH5h02zSDOYeuEmb0JVY-30" target="PH5h02zSDOYeuEmb0JVY-19">
          <mxGeometry relative="1" as="geometry">
            <Array as="points">
              <mxPoint x="795" y="500" />
              <mxPoint x="1589" y="500" />
            </Array>
          </mxGeometry>
        </mxCell>
        <mxCell id="PH5h02zSDOYeuEmb0JVY-36" value="[INPUT NOT OK]" style="edgeLabel;html=1;align=center;verticalAlign=middle;resizable=0;points=[];" vertex="1" connectable="0" parent="PH5h02zSDOYeuEmb0JVY-34">
          <mxGeometry x="-0.904" relative="1" as="geometry">
            <mxPoint as="offset" />
          </mxGeometry>
        </mxCell>
        <mxCell id="PH5h02zSDOYeuEmb0JVY-30" value="" style="rhombus;whiteSpace=wrap;html=1;" vertex="1" parent="1">
          <mxGeometry x="780" y="330" width="30" height="40" as="geometry" />
        </mxCell>
        <mxCell id="PH5h02zSDOYeuEmb0JVY-35" value="*See detailed activity diagrams to see detailed operations" style="text;html=1;strokeColor=none;fillColor=none;align=center;verticalAlign=middle;whiteSpace=wrap;rounded=0;" vertex="1" parent="1">
          <mxGeometry x="1040" y="140" width="140" height="70" as="geometry" />
        </mxCell>
      </root>
    </mxGraphModel>
  </diagram>
</mxfile>
